<svg width="14" height="20" viewBox="0 0 14 20" fill="none" xmlns="http://www.w3.org/2000/svg">
<path d="M7 13C8.66 13 10 11.69 10 10.03V3.01C10 1.35 8.66 0 7 0C5.34 0 4 1.34 4 3.01V10.03C4 11.69 5.34 13 7 13Z" fill="#4285F4"/>
<path d="M6 16.08H8V20H6V16.08Z" fill="#34A853"/>
<path d="M2.05 14.87C0.78 13.54 0 12.04 0 10H2C2 11.45 2.56 12.42 3.47 13.38V13.7L2.32 14.88L2.05 14.87Z" fill="#F4B400"/>
<path d="M6.99999 14.93C6.34218 14.932 5.69055 14.796 5.08288 14.5299C4.47521 14.2638 3.92358 13.873 3.45999 13.38L2.04999 14.87C3.30999 16.21 5.06999 17 6.99999 17C10.87 17 13.99 14.08 13.99 10H12C12 12.92 9.75999 14.93 6.99999 14.93Z" fill="#EA4335"/>
</svg>
